<svg id="Layer_1" data-name="Layer 1" xmlns="http://www.w3.org/2000/svg" xmlns:xlink="http://www.w3.org/1999/xlink" viewBox="0 0 6893.24 1900.81"><defs><style>.cls-1{fill:#ff013e;}.cls-2{fill:url(#linear-gradient);}.cls-3{fill:url(#linear-gradient-2);}.cls-4{opacity:0.08;}.cls-5{fill:#00f342;}.cls-6{fill:#fff;}</style><linearGradient id="linear-gradient" x1="161.44" y1="573.34" x2="1521.62" y2="1236.42" gradientUnits="userSpaceOnUse"><stop offset="0" stop-color="#00e8d9"/><stop offset="0.13" stop-color="#0babef"/><stop offset="0.23" stop-color="#1380ff"/><stop offset="0.5" stop-color="#4152ff"/><stop offset="0.94" stop-color="#e000f1"/></linearGradient><linearGradient id="linear-gradient-2" x1="181.7" y1="811.91" x2="1499.06" y2="490.14" gradientUnits="userSpaceOnUse"><stop offset="0" stop-color="#01dae8"/><stop offset="0.08" stop-color="#01ddd5"/><stop offset="0.27" stop-color="#00e4b0"/><stop offset="0.37" stop-color="#00e6a2"/><stop offset="0.44" stop-color="#00e69e"/><stop offset="0.51" stop-color="#00e892"/><stop offset="0.59" stop-color="#00ea7d"/><stop offset="0.66" stop-color="#00ee61"/><stop offset="0.74" stop-color="#00f23d"/><stop offset="0.75" stop-color="#00f334"/></linearGradient></defs><path class="cls-1" d="M1582.45,830.3v560.48c0,203.11-164.63,367.74-367.73,367.74H806a283.74,283.74,0,0,0,235.29-125.2Z"/><path class="cls-2" d="M1747.67,585.17,1582.45,830.3l-541.17,803A283.74,283.74,0,0,1,806,1758.52H549.76c-203.11,0-367.74-164.63-367.74-367.74v-665c0-203.1,164.63-367.73,367.74-367.73h573.73q90.23-83,181.27-182.24A103.63,103.63,0,0,1,1460.14,313L1386,400.34,1169.58,655.53,876,1001.66a103.76,103.76,0,0,1-153.3,5.4L584.24,865.37A125.52,125.52,0,0,0,402,1038L682.57,1343.5c63.34,69,172.92,66.3,232.78-5.77l496.48-597.92,137.84-166,70.15-84.42c31-37.37,88-38.62,120.67-2.74A80.11,80.11,0,0,1,1747.67,585.17Z"/><path class="cls-3" d="M182,725.82c0-203.1,164.63-367.73,367.74-367.73h573.73q90.23-83,181.27-182.24A103.63,103.63,0,0,1,1460.14,313L1386,400.34,1169.58,655.53,876,1001.66a103.76,103.76,0,0,1-153.3,5.4L584.24,865.37A125.52,125.52,0,0,0,402,1038L182,795.07Z"/><path class="cls-4" d="M915.35,1337.73l496.48-597.92L873.17,1551.86c-54.38,81.91-173.87,84.2-231.37,4.44L182,917.61V759.19c306,35.37,620.2-105.51,941.47-401.1q90.26-83,181.28-182.23a103.64,103.64,0,0,1,153,.28h0a103.63,103.63,0,0,1,2.39,136.78L1386,400.34,1169.58,655.53,876,1001.66a103.76,103.76,0,0,1-153.3,5.4L584.24,865.37A125.52,125.52,0,0,0,402,1038L682.57,1343.5C745.91,1412.53,855.49,1409.8,915.35,1337.73Z"/><path d="M2352,1394.53q-67.71,0-124.57-22.15t-99.08-63.13a292.62,292.62,0,0,1-65.63-95.31q-23.41-54.35-23.41-120.39t23.41-120.4a289.77,289.77,0,0,1,66.05-95.31,298.43,298.43,0,0,1,99.49-63.12q56.85-22.15,124.58-22.16,71.89,0,131.26,24.66a260.14,260.14,0,0,1,100.33,73.16l-70.23,66q-32.61-34.27-71.9-51.42t-84.45-17.14q-46,0-84,15a195.34,195.34,0,0,0-66.06,42.64,199,199,0,0,0-43.88,65.21q-15.9,37.62-15.9,82.78t15.9,82.77a198.91,198.91,0,0,0,43.88,65.21,195.34,195.34,0,0,0,66.06,42.64q38,15,84,15,45.15,0,84.45-17.14t71.9-52.26l70.23,66a263.82,263.82,0,0,1-100.33,73.58Q2424.69,1394.53,2352,1394.53Z"/><path d="M2932.18,933.86q54.34,0,95.73,20.9t66.05,64.37q24.64,43.48,24.66,111.2v255.84h-104.5V1143.71q0-59.36-27.6-88.62t-78.58-29.27q-36.81,0-65.22,15t-43.9,44.73q-15.48,29.69-15.46,74.83v225.74H2679.68V765.8h103.68v295.14l-21.74-37.63q22.58-42.63,67.3-66T2932.18,933.86Z"/><path d="M3462.25,1392q-74.43,0-130-29.68t-86.12-81.1q-30.52-51.42-30.51-118.3t29.68-118.31q29.67-51.41,81.93-81.09t119.14-29.68q65.2,0,116.21,28.84t80.27,80.68q29.25,51.86,29.26,122.9,0,5.87-.41,14.63c-.3,5.85-.71,11-1.26,15.47h-372V1127h316.87l-41.81,21.73q.84-37.62-15.46-67.3a116.53,116.53,0,0,0-44.74-46q-28.42-16.31-66.88-16.31-37.62,0-67.3,16.31a110.8,110.8,0,0,0-45.57,46.4q-15.88,30.11-15.89,69.39V1168q0,40.13,18,71.06t51.42,48.07q33.42,17.15,77.76,17.15,37.6,0,67.71-12.55A158.36,158.36,0,0,0,3586,1254.9l56.86,65.22q-30.95,35.12-76.51,53.51T3462.25,1392Z"/><path d="M3977.26,1392q-70.23,0-125-29.68t-85.7-81.1q-30.93-51.42-30.93-118.3,0-67.73,30.93-118.73t85.7-80.67q54.75-29.67,125-29.68,64.36,0,114.54,26.75t75.24,77.75l-79.43,46.83q-20.07-30.93-48.91-46.41a129.75,129.75,0,0,0-62.28-15.47q-38.46,0-69.39,17.15a122.85,122.85,0,0,0-48.5,48.48q-17.55,31.36-17.55,74t17.55,74.41q17.56,31.79,48.5,48.91t69.39,17.14a129.64,129.64,0,0,0,62.28-15.47q28.85-15.47,48.91-47.24l79.43,46.82q-25.08,50.17-75.24,77.34T3977.26,1392Z"/><path d="M4254.83,1386.17V765.8h103.68v620.37Zm84.44-99.49,2.52-131.27L4575,939.71h125.42l-198.15,198.15-56,46.82Zm252.49,99.49-164.7-201.49,66-83.61,224.9,285.1Z"/><path d="M4977.2,1392q-74.41,0-130-29.68t-86.12-81.1q-30.52-51.42-30.5-118.3t29.68-118.31q29.66-51.41,81.93-81.09t119.14-29.68q65.2,0,116.21,28.84t80.27,80.68q29.23,51.86,29.26,122.9c0,3.91-.15,8.78-.42,14.63s-.71,11-1.25,15.47H4813.34V1127H5130.2l-41.8,21.73q.83-37.62-15.47-67.3a116.44,116.44,0,0,0-44.73-46q-28.43-16.31-66.88-16.31-37.62,0-67.31,16.31a110.84,110.84,0,0,0-45.56,46.4q-15.89,30.11-15.89,69.39V1168q0,40.13,18,71.06t51.43,48.07q33.42,17.15,77.75,17.15,37.62,0,67.72-12.55a158.36,158.36,0,0,0,53.51-36.79l56.86,65.22q-31,35.12-76.51,53.51T4977.2,1392Z"/><path d="M5476.33,1392q-64.4,0-115.8-28.42a205.77,205.77,0,0,1-80.68-79.85q-29.28-51.42-29.26-120.81,0-68.55,29.26-120.4t80.68-80.26q51.42-28.41,115.8-28.42,56,0,100.33,24.66t70.23,75.25q25.89,50.6,25.91,129.17,0,77.76-25.08,128.75t-69,75.67Q5534.85,1392,5476.33,1392Zm12.53-88.62q37.64,0,67.31-17.14t47.66-49.33q18-32.17,18-74,0-42.64-18-74t-47.66-48.48q-29.68-17.13-67.31-17.15t-67.3,17.15q-29.69,17.13-47.65,48.48t-18,74q0,41.82,18,74t47.65,49.33Q5451.23,1303.41,5488.86,1303.4Zm136.28,82.77V1280.83l2.51-118.73-8.36-118.72V765.8h105.35v620.37Z"/><rect class="cls-5" x="5897.56" y="673.34" width="813.65" height="813.65" rx="93.19"/><path class="cls-6" d="M6136,890.56q-29.28,0-48.06-18.39T6069.09,827q0-25.06,18.81-43.46T6136,765.18q29.25,0,48.06,17.14t18.81,43.88q0,26.76-18.39,45.55T6136,890.56Zm-51.83,489.3V933.5h103.65v446.36Z"/><path class="cls-6" d="M6265.52,1020.43V936.85h297.57v83.58Zm227.35,365.28q-73.56,0-113.68-38t-40.12-111.59V834.87h103.64v397.87q0,31.79,16.73,49.32t46.8,17.55q34.28,0,56.85-18.39l30.08,74.39q-19.23,15.06-46,22.58A200,200,0,0,1,6492.87,1385.71Z"/></svg>